<?xml version="1.0" encoding="UTF-8" standalone="no"?>
<!-- Created with Inkscape (http://www.inkscape.org/) -->

<svg
   xmlns:dc="http://purl.org/dc/elements/1.1/"
   xmlns:cc="http://creativecommons.org/ns#"
   xmlns:rdf="http://www.w3.org/1999/02/22-rdf-syntax-ns#"
   xmlns:svg="http://www.w3.org/2000/svg"
   xmlns="http://www.w3.org/2000/svg"
   xmlns:xlink="http://www.w3.org/1999/xlink"
   xmlns:sodipodi="http://sodipodi.sourceforge.net/DTD/sodipodi-0.dtd"
   xmlns:inkscape="http://www.inkscape.org/namespaces/inkscape"
   width="128"
   height="128"
   id="svg2"
   sodipodi:version="0.32"
   inkscape:version="0.46+devel"
   sodipodi:docname="porshen_by_hrum.svg"
   inkscape:output_extension="org.inkscape.output.svg.inkscape"
   inkscape:export-filename="/home/hrum/Pictures/porshen.png"
   inkscape:export-xdpi="90"
   inkscape:export-ydpi="90"
   version="1.0">
  <defs
     id="defs4">
    <linearGradient
       id="linearGradient3225">
      <stop
         id="stop3227"
         offset="0"
         style="stop-color:#1f92dd;stop-opacity:0;" />
      <stop
         id="stop3229"
         offset="1"
         style="stop-color:#1f92dd;stop-opacity:1;" />
    </linearGradient>
    <linearGradient
       id="linearGradient1104"
       inkscape:collect="always">
      <stop
         id="stop1106"
         offset="0"
         style="stop-color:#0044aa;stop-opacity:1" />
      <stop
         id="stop1108"
         offset="1"
         style="stop-color:#24a1ff;stop-opacity:0;" />
    </linearGradient>
    <linearGradient
       inkscape:collect="always"
       id="linearGradient1092">
      <stop
         style="stop-color:#000000;stop-opacity:1;"
         offset="0"
         id="stop1094" />
      <stop
         style="stop-color:#000000;stop-opacity:0;"
         offset="1"
         id="stop1096" />
    </linearGradient>
    <linearGradient
       inkscape:collect="always"
       id="linearGradient1075">
      <stop
         style="stop-color:#ffffff;stop-opacity:1;"
         offset="0"
         id="stop1077" />
      <stop
         style="stop-color:#ffffff;stop-opacity:0;"
         offset="1"
         id="stop1079" />
    </linearGradient>
    <linearGradient
       inkscape:collect="always"
       id="linearGradient1028">
      <stop
         style="stop-color:#24a1ff;stop-opacity:1;"
         offset="0"
         id="stop1030" />
      <stop
         style="stop-color:#24a1ff;stop-opacity:0;"
         offset="1"
         id="stop1032" />
    </linearGradient>
    <linearGradient
       inkscape:collect="always"
       id="linearGradient1018">
      <stop
         style="stop-color:#1f92dd;stop-opacity:1;"
         offset="0"
         id="stop1020" />
      <stop
         style="stop-color:#1f92dd;stop-opacity:0;"
         offset="1"
         id="stop1022" />
    </linearGradient>
    <linearGradient
       id="linearGradient1002"
       inkscape:collect="always">
      <stop
         id="stop1004"
         offset="0"
         style="stop-color:#000000;stop-opacity:0.71914894" />
      <stop
         id="stop1006"
         offset="1"
         style="stop-color:#000000;stop-opacity:0;" />
    </linearGradient>
    <linearGradient
       id="linearGradient966">
      <stop
         style="stop-color:#000000;stop-opacity:0;"
         offset="0"
         id="stop968" />
      <stop
         id="stop974"
         offset="0.82646823"
         style="stop-color:#000000;stop-opacity:0.14468085" />
      <stop
         style="stop-color:#000000;stop-opacity:1;"
         offset="1"
         id="stop970" />
    </linearGradient>
    <linearGradient
       inkscape:collect="always"
       id="linearGradient810">
      <stop
         style="stop-color:#000000;stop-opacity:1;"
         offset="0"
         id="stop812" />
      <stop
         style="stop-color:#000000;stop-opacity:0;"
         offset="1"
         id="stop814" />
    </linearGradient>
    <inkscape:perspective
       sodipodi:type="inkscape:persp3d"
       inkscape:vp_x="0 : 526.18109 : 1"
       inkscape:vp_y="0 : 1000 : 0"
       inkscape:vp_z="744.09448 : 526.18109 : 1"
       inkscape:persp3d-origin="372.04724 : 350.78739 : 1"
       id="perspective10" />
    <inkscape:perspective
       id="perspective836"
       inkscape:persp3d-origin="0.5 : 0.33333333 : 1"
       inkscape:vp_z="1 : 0.5 : 1"
       inkscape:vp_y="0 : 1000 : 0"
       inkscape:vp_x="0 : 0.5 : 1"
       sodipodi:type="inkscape:persp3d" />
    <linearGradient
       inkscape:collect="always"
       xlink:href="#linearGradient1104"
       id="linearGradient870"
       x1="409.60751"
       y1="612.0788"
       x2="368.16959"
       y2="526.53125"
       gradientUnits="userSpaceOnUse" />
    <radialGradient
       inkscape:collect="always"
       xlink:href="#linearGradient966"
       id="radialGradient972"
       cx="329"
       cy="571.11218"
       fx="329"
       fy="571.11218"
       r="101"
       gradientTransform="matrix(1.0740431,-0.01538694,0.00575364,0.3581446,-27.646167,371.63375)"
       gradientUnits="userSpaceOnUse" />
    <radialGradient
       inkscape:collect="always"
       xlink:href="#linearGradient966"
       id="radialGradient984"
       cx="329"
       cy="571.11218"
       fx="329"
       fy="571.11218"
       r="101"
       gradientTransform="matrix(1.0729238,0.01380884,-0.00384959,0.3763511,-21.793394,351.6304)"
       gradientUnits="userSpaceOnUse" />
    <linearGradient
       inkscape:collect="always"
       xlink:href="#linearGradient1002"
       id="linearGradient1000"
       x1="306.89828"
       y1="457.19217"
       x2="395.53131"
       y2="430.19217"
       gradientUnits="userSpaceOnUse"
       spreadMethod="reflect" />
    <linearGradient
       inkscape:collect="always"
       xlink:href="#linearGradient1018"
       id="linearGradient1024"
       x1="424.3671"
       y1="445.97836"
       x2="387.50708"
       y2="485.47397"
       gradientUnits="userSpaceOnUse" />
    <linearGradient
       inkscape:collect="always"
       xlink:href="#linearGradient1028"
       id="linearGradient1034"
       x1="273.94003"
       y1="613.32001"
       x2="423.41223"
       y2="512.1347"
       gradientUnits="userSpaceOnUse" />
    <linearGradient
       inkscape:collect="always"
       xlink:href="#linearGradient810"
       id="linearGradient1038"
       gradientUnits="userSpaceOnUse"
       x1="372.23584"
       y1="698.68719"
       x2="410.78418"
       y2="648.06305" />
    <linearGradient
       inkscape:collect="always"
       xlink:href="#linearGradient1002"
       id="linearGradient1049"
       gradientUnits="userSpaceOnUse"
       spreadMethod="reflect"
       x1="306.89828"
       y1="457.19217"
       x2="395.53131"
       y2="430.19217" />
    <linearGradient
       inkscape:collect="always"
       xlink:href="#linearGradient1075"
       id="linearGradient1081"
       x1="440.28125"
       y1="527.09375"
       x2="418.0625"
       y2="306.82812"
       gradientUnits="userSpaceOnUse" />
    <linearGradient
       inkscape:collect="always"
       xlink:href="#linearGradient1075"
       id="linearGradient1084"
       gradientUnits="userSpaceOnUse"
       spreadMethod="pad"
       x1="442.89828"
       y1="634.69214"
       x2="246.125"
       y2="375.19214" />
    <linearGradient
       inkscape:collect="always"
       xlink:href="#linearGradient1092"
       id="linearGradient1098"
       x1="397.53555"
       y1="520.09155"
       x2="384.625"
       y2="465.59158"
       gradientUnits="userSpaceOnUse" />
    <linearGradient
       inkscape:collect="always"
       xlink:href="#linearGradient1075"
       id="linearGradient1102"
       gradientUnits="userSpaceOnUse"
       x1="310.28552"
       y1="406.35287"
       x2="384.625"
       y2="465.59158" />
    <radialGradient
       inkscape:collect="always"
       xlink:href="#linearGradient1075"
       id="radialGradient1126"
       cx="377.3985"
       cy="511.22992"
       fx="377.3985"
       fy="511.22992"
       r="87.726486"
       gradientTransform="matrix(1,0,0,0.3993236,0,336.41632)"
       gradientUnits="userSpaceOnUse" />
    <linearGradient
       inkscape:collect="always"
       xlink:href="#linearGradient1002"
       id="linearGradient3217"
       gradientUnits="userSpaceOnUse"
       x1="397.16995"
       y1="512.98438"
       x2="432.28125"
       y2="578.03125" />
    <radialGradient
       inkscape:collect="always"
       xlink:href="#linearGradient1002"
       id="radialGradient3219"
       cx="395.12607"
       cy="570.42212"
       fx="395.12607"
       fy="570.42212"
       r="86.344818"
       gradientTransform="matrix(1.12284,-0.3111948,0.1108243,0.3998717,-111.75396,465.28759)"
       gradientUnits="userSpaceOnUse" />
    <radialGradient
       inkscape:collect="always"
       xlink:href="#linearGradient3225"
       id="radialGradient3223"
       gradientUnits="userSpaceOnUse"
       gradientTransform="matrix(2.8803346,-0.8946048,0.2524912,0.8129401,-886.63039,454.77437)"
       cx="394.21381"
       cy="607.38678"
       fx="394.21381"
       fy="607.38678"
       r="86.344818" />
    <linearGradient
       inkscape:collect="always"
       xlink:href="#linearGradient1104"
       id="linearGradient3245"
       x1="334.01562"
       y1="602.75"
       x2="393.65625"
       y2="560.75"
       gradientUnits="userSpaceOnUse" />
    <linearGradient
       inkscape:collect="always"
       xlink:href="#linearGradient1002"
       id="linearGradient3247"
       gradientUnits="userSpaceOnUse"
       spreadMethod="reflect"
       x1="306.89828"
       y1="457.19217"
       x2="395.53131"
       y2="430.19217" />
    <linearGradient
       inkscape:collect="always"
       xlink:href="#linearGradient1002"
       id="linearGradient3249"
       gradientUnits="userSpaceOnUse"
       spreadMethod="reflect"
       x1="306.89828"
       y1="457.19217"
       x2="395.53131"
       y2="430.19217" />
    <linearGradient
       inkscape:collect="always"
       xlink:href="#linearGradient1002"
       id="linearGradient3251"
       gradientUnits="userSpaceOnUse"
       spreadMethod="reflect"
       x1="306.89828"
       y1="457.19217"
       x2="395.53131"
       y2="430.19217" />
    <inkscape:perspective
       id="perspective1115"
       inkscape:persp3d-origin="0.5 : 0.33333333 : 1"
       inkscape:vp_z="1 : 0.5 : 1"
       inkscape:vp_y="0 : 1000 : 0"
       inkscape:vp_x="0 : 0.5 : 1"
       sodipodi:type="inkscape:persp3d" />
    <linearGradient
       inkscape:collect="always"
       xlink:href="#linearGradient1028"
       id="linearGradient238"
       gradientUnits="userSpaceOnUse"
       x1="273.94003"
       y1="613.32001"
       x2="423.41223"
       y2="512.1347" />
    <linearGradient
       inkscape:collect="always"
       xlink:href="#linearGradient1018"
       id="linearGradient240"
       gradientUnits="userSpaceOnUse"
       x1="424.3671"
       y1="445.97836"
       x2="387.50708"
       y2="485.47397" />
    <linearGradient
       inkscape:collect="always"
       xlink:href="#linearGradient810"
       id="linearGradient242"
       gradientUnits="userSpaceOnUse"
       x1="372.23584"
       y1="698.68719"
       x2="410.78418"
       y2="648.06305" />
    <radialGradient
       inkscape:collect="always"
       xlink:href="#linearGradient966"
       id="radialGradient244"
       gradientUnits="userSpaceOnUse"
       gradientTransform="matrix(1.0729238,0.01380884,-0.00384959,0.3763511,-21.793394,351.6304)"
       cx="329"
       cy="571.11218"
       fx="329"
       fy="571.11218"
       r="101" />
    <radialGradient
       inkscape:collect="always"
       xlink:href="#linearGradient966"
       id="radialGradient246"
       gradientUnits="userSpaceOnUse"
       gradientTransform="matrix(1.0740431,-0.01538694,0.00575364,0.3581446,-27.646167,371.63375)"
       cx="329"
       cy="571.11218"
       fx="329"
       fy="571.11218"
       r="101" />
    <linearGradient
       inkscape:collect="always"
       xlink:href="#linearGradient1002"
       id="linearGradient248"
       gradientUnits="userSpaceOnUse"
       spreadMethod="reflect"
       x1="306.89828"
       y1="457.19217"
       x2="395.53131"
       y2="430.19217" />
    <linearGradient
       inkscape:collect="always"
       xlink:href="#linearGradient1002"
       id="linearGradient250"
       gradientUnits="userSpaceOnUse"
       x1="397.16995"
       y1="512.98438"
       x2="432.28125"
       y2="578.03125" />
    <linearGradient
       inkscape:collect="always"
       xlink:href="#linearGradient1104"
       id="linearGradient252"
       gradientUnits="userSpaceOnUse"
       x1="409.60751"
       y1="612.0788"
       x2="368.16959"
       y2="526.53125" />
    <radialGradient
       inkscape:collect="always"
       xlink:href="#linearGradient1002"
       id="radialGradient254"
       gradientUnits="userSpaceOnUse"
       gradientTransform="matrix(1.12284,-0.3111948,0.1108243,0.3998717,-111.75396,465.28759)"
       cx="395.12607"
       cy="570.42212"
       fx="395.12607"
       fy="570.42212"
       r="86.344818" />
    <linearGradient
       inkscape:collect="always"
       xlink:href="#linearGradient1002"
       id="linearGradient256"
       gradientUnits="userSpaceOnUse"
       spreadMethod="reflect"
       x1="306.89828"
       y1="457.19217"
       x2="395.53131"
       y2="430.19217" />
    <linearGradient
       inkscape:collect="always"
       xlink:href="#linearGradient1002"
       id="linearGradient258"
       gradientUnits="userSpaceOnUse"
       spreadMethod="reflect"
       x1="306.89828"
       y1="457.19217"
       x2="395.53131"
       y2="430.19217" />
    <linearGradient
       inkscape:collect="always"
       xlink:href="#linearGradient1075"
       id="linearGradient260"
       gradientUnits="userSpaceOnUse"
       x1="440.28125"
       y1="527.09375"
       x2="418.0625"
       y2="306.82812" />
    <linearGradient
       inkscape:collect="always"
       xlink:href="#linearGradient1002"
       id="linearGradient262"
       gradientUnits="userSpaceOnUse"
       spreadMethod="reflect"
       x1="306.89828"
       y1="457.19217"
       x2="395.53131"
       y2="430.19217" />
    <linearGradient
       inkscape:collect="always"
       xlink:href="#linearGradient1002"
       id="linearGradient264"
       gradientUnits="userSpaceOnUse"
       spreadMethod="reflect"
       x1="306.89828"
       y1="457.19217"
       x2="395.53131"
       y2="430.19217" />
    <linearGradient
       inkscape:collect="always"
       xlink:href="#linearGradient1075"
       id="linearGradient266"
       gradientUnits="userSpaceOnUse"
       spreadMethod="pad"
       x1="442.89828"
       y1="634.69214"
       x2="246.125"
       y2="375.19214" />
    <linearGradient
       inkscape:collect="always"
       xlink:href="#linearGradient1092"
       id="linearGradient268"
       gradientUnits="userSpaceOnUse"
       x1="397.53555"
       y1="520.09155"
       x2="384.625"
       y2="465.59158" />
    <linearGradient
       inkscape:collect="always"
       xlink:href="#linearGradient1075"
       id="linearGradient270"
       gradientUnits="userSpaceOnUse"
       x1="310.28552"
       y1="406.35287"
       x2="384.625"
       y2="465.59158" />
    <linearGradient
       inkscape:collect="always"
       xlink:href="#linearGradient1104"
       id="linearGradient272"
       gradientUnits="userSpaceOnUse"
       x1="334.01562"
       y1="602.75"
       x2="393.65625"
       y2="560.75" />
    <radialGradient
       inkscape:collect="always"
       xlink:href="#linearGradient1075"
       id="radialGradient274"
       gradientUnits="userSpaceOnUse"
       gradientTransform="matrix(1,0,0,0.3993236,0,336.41632)"
       cx="377.3985"
       cy="511.22992"
       fx="377.3985"
       fy="511.22992"
       r="87.726486" />
    <radialGradient
       inkscape:collect="always"
       xlink:href="#linearGradient3225"
       id="radialGradient276"
       gradientUnits="userSpaceOnUse"
       gradientTransform="matrix(2.8803346,-0.8946048,0.2524912,0.8129401,-886.63039,454.77437)"
       cx="394.21381"
       cy="607.38678"
       fx="394.21381"
       fy="607.38678"
       r="86.344818" />
  </defs>
  <sodipodi:namedview
     id="base"
     pagecolor="#ffffff"
     bordercolor="#666666"
     borderopacity="1.0"
     inkscape:pageopacity="0.0"
     inkscape:pageshadow="2"
     inkscape:zoom="2.8284271"
     inkscape:cx="80.316544"
     inkscape:cy="30.130778"
     inkscape:document-units="px"
     inkscape:current-layer="layer1"
     showgrid="true"
     inkscape:window-width="1130"
     inkscape:window-height="997"
     inkscape:window-x="37"
     inkscape:window-y="26"
     inkscape:snap-global="false">
    <inkscape:grid
       type="xygrid"
       id="grid86"
       empspacing="5"
       visible="true"
       enabled="true"
       snapvisiblegridlinesonly="true" />
  </sodipodi:namedview>
  <metadata
     id="metadata7">
    <rdf:RDF>
      <cc:Work
         rdf:about="">
        <dc:format>image/svg+xml</dc:format>
        <dc:type
           rdf:resource="http://purl.org/dc/dcmitype/StillImage" />
        <dc:title></dc:title>
      </cc:Work>
    </rdf:RDF>
  </metadata>
  <g
     inkscape:label="Layer 1"
     inkscape:groupmode="layer"
     id="layer1"
     transform="translate(-265.8983,-347.94686)">
    <g
       id="g206"
       transform="matrix(1.0086499,0,0,1.0086499,12.127234,-3.0097116)">
      <g
         transform="matrix(0.49127466,0,0,0.49127466,135.2692,177.00939)"
         id="g94">
        <path
           transform="matrix(0.8180908,-0.2650575,0.3114207,0.9611892,-125.7992,-33.444348)"
           style="fill:#000000;fill-opacity:1;fill-rule:nonzero;stroke:none;stroke-width:5.19999981;marker:none;visibility:visible;display:inline;overflow:visible;enable-background:accumulate"
           d="m 454.56865,594.76306 c 0,7.52615 -10.2324,14.3398 -26.77595,19.27191 -16.54355,4.93211 -6.85206,45.09655 -32.09667,45.09655 -14.5384,0 -48.56867,-0.0455 -60.51198,-1.86066 -29.5336,-4.48857 -61.24402,-51.91632 -61.24402,-62.6343 0,-15.05229 38.7206,-27.12809 89.20981,-27.12809 50.48921,0 91.41881,12.2023 91.41881,27.25459 l 0,0 z"
           id="path17"
           sodipodi:nodetypes="csssssc" />
        <path
           sodipodi:nodetypes="csssssc"
           id="path1026"
           d="m 454.56865,594.76306 c 0,7.52615 -10.2324,14.3398 -26.77595,19.27191 -16.54355,4.93211 -6.85206,45.09655 -32.09667,45.09655 -14.5384,0 -48.56867,-0.0455 -60.51198,-1.86066 -29.5336,-4.48857 -61.24402,-51.91632 -61.24402,-62.6343 0,-15.05229 38.7206,-27.12809 89.20981,-27.12809 50.48921,0 91.41881,12.2023 91.41881,27.25459 l 0,0 z"
           style="fill:url(#linearGradient238);fill-opacity:1;fill-rule:nonzero;stroke:none;stroke-width:5.19999981;marker:none;visibility:visible;display:inline;overflow:visible;enable-background:accumulate"
           transform="matrix(0.8180908,-0.2650575,0.3114207,0.9611892,-125.7992,-33.444348)" />
        <path
           style="fill:#000000;fill-opacity:1;stroke-width:1px"
           d="m 364.8671,456.97827 45.27996,28.49569 -1.08579,-37.68807 c 0,0 -19.97576,-2.12132 -21.2132,-1.76777 -1.23744,0.35355 -22.98097,10.96015 -22.98097,10.96015 z"
           id="path857"
           sodipodi:nodetypes="cccsc" />
        <path
           sodipodi:nodetypes="cccsc"
           id="path1008"
           d="m 364.8671,456.97827 45.27996,28.49569 -1.08579,-37.68807 c 0,0 -19.97576,-2.12132 -21.2132,-1.76777 -1.23744,0.35355 -22.98097,10.96015 -22.98097,10.96015 z"
           style="fill:url(#linearGradient240);fill-opacity:1;stroke-width:1px" />
        <path
           style="stroke:none"
           d="m 462.46875,498.09375 c -7.16228,0.77756 -16.08032,0.81183 -25.46875,1.28125 -20,1 -55.5,6.5 -78.5,17.5 -15.2063,7.27258 -41.25467,20.61906 -57.8125,29.15625 l 7.625,36.4375 1.71875,8.125 89.125,-11.375 78.875,-43.0625 -3.1875,-7.8125 -12.375,-30.25 z"
           id="path826" />
        <path
           sodipodi:type="arc"
           style="fill:#666666;fill-opacity:1;fill-rule:nonzero;stroke:none;stroke-width:5.19999981;marker:none;visibility:visible;display:inline;overflow:visible;enable-background:accumulate"
           id="path874"
           sodipodi:cx="329"
           sodipodi:cy="571.11218"
           sodipodi:rx="101"
           sodipodi:ry="35.75"
           d="m 430,571.11218 c 0,19.74418 -45.21924,35.75 -101,35.75 -55.78076,0 -101,-16.00582 -101,-35.75 0,-19.74418 45.21924,-35.75 101,-35.75 55.78076,0 101,16.00582 101,35.75 z"
           transform="matrix(0.8243335,-0.2759742,0.3072582,0.7404028,-60.349472,206.48288)" />
        <path
           transform="matrix(0.7980177,-0.2671641,0.2974493,0.7167663,-44.959823,219.03827)"
           d="m 430,571.11218 c 0,19.74418 -45.21924,35.75 -101,35.75 -55.78076,0 -101,-16.00582 -101,-35.75 0,-19.74418 45.21924,-35.75 101,-35.75 55.78076,0 101,16.00582 101,35.75 z"
           sodipodi:ry="35.75"
           sodipodi:rx="101"
           sodipodi:cy="571.11218"
           sodipodi:cx="329"
           id="path897"
           style="fill:#0097fb;fill-opacity:1;fill-rule:nonzero;stroke:none;stroke-width:5.19999981;marker:none;visibility:visible;display:inline;overflow:visible;enable-background:accumulate"
           sodipodi:type="arc" />
        <path
           transform="matrix(0.8180908,-0.2650575,0.3114207,0.9611892,-125.7992,-33.444348)"
           style="fill:url(#linearGradient242);fill-opacity:1;fill-rule:nonzero;stroke:none;stroke-width:5.19999981;marker:none;visibility:visible;display:inline;overflow:visible;enable-background:accumulate"
           d="m 454.56865,594.76306 c 0,7.52615 -10.2324,14.3398 -26.77595,19.27191 -16.54355,4.93211 -6.85206,45.09655 -32.09667,45.09655 -14.5384,0 -48.56867,-0.0455 -60.51198,-1.86066 -29.5336,-4.48857 -61.24402,-51.91632 -61.24402,-62.6343 0,-15.05229 38.7206,-27.12809 89.20981,-27.12809 50.48921,0 91.41881,12.2023 91.41881,27.25459 l 0,0 z"
           id="path1036"
           sodipodi:nodetypes="csssssc" />
        <path
           transform="matrix(0.8243335,-0.2759742,0.3072582,0.7404028,-60.349472,206.48288)"
           d="m 430,571.11218 c 0,19.74418 -45.21924,35.75 -101,35.75 -55.78076,0 -101,-16.00582 -101,-35.75 0,-19.74418 45.21924,-35.75 101,-35.75 55.78076,0 101,16.00582 101,35.75 z"
           sodipodi:ry="35.75"
           sodipodi:rx="101"
           sodipodi:cy="571.11218"
           sodipodi:cx="329"
           id="path976"
           style="fill:url(#radialGradient244);fill-opacity:1;fill-rule:nonzero;stroke:none;stroke-width:5.19999981;marker:none;visibility:visible;display:inline;overflow:visible;enable-background:accumulate"
           sodipodi:type="arc" />
        <path
           transform="matrix(0.8334424,-0.2790237,0.3106534,0.7485843,-61.882397,214.11016)"
           d="m 430,571.11218 c 0,19.74418 -45.21924,35.75 -101,35.75 -55.78076,0 -101,-16.00582 -101,-35.75 0,-19.74418 45.21924,-35.75 101,-35.75 55.78076,0 101,16.00582 101,35.75 z"
           sodipodi:ry="35.75"
           sodipodi:rx="101"
           sodipodi:cy="571.11218"
           sodipodi:cx="329"
           id="path872"
           style="fill:#666666;fill-opacity:1;fill-rule:nonzero;stroke:none;stroke-width:5.19999981;marker:none;visibility:visible;display:inline;overflow:visible;enable-background:accumulate"
           sodipodi:type="arc" />
        <path
           sodipodi:type="arc"
           style="fill:#24a8ff;fill-opacity:1;fill-rule:nonzero;stroke:none;stroke-width:5.19999981;marker:none;visibility:visible;display:inline;overflow:visible;enable-background:accumulate"
           id="path899"
           sodipodi:cx="329"
           sodipodi:cy="571.11218"
           sodipodi:rx="101"
           sodipodi:ry="35.75"
           d="m 430,571.11218 c 0,19.74418 -45.21924,35.75 -101,35.75 -55.78076,0 -101,-16.00582 -101,-35.75 0,-19.74418 45.21924,-35.75 101,-35.75 55.78076,0 101,16.00582 101,35.75 z"
           transform="matrix(0.8068358,-0.2701162,0.3007361,0.7246866,-46.090258,226.77561)" />
        <path
           sodipodi:type="arc"
           style="fill:url(#radialGradient246);fill-opacity:1;fill-rule:nonzero;stroke:none;stroke-width:5.19999981;marker:none;visibility:visible;display:inline;overflow:visible;enable-background:accumulate"
           id="path964"
           sodipodi:cx="329"
           sodipodi:cy="571.11218"
           sodipodi:rx="101"
           sodipodi:ry="35.75"
           d="m 430,571.11218 c 0,19.74418 -45.21924,35.75 -101,35.75 -55.78076,0 -101,-16.00582 -101,-35.75 0,-19.74418 45.21924,-35.75 101,-35.75 55.78076,0 101,16.00582 101,35.75 z"
           transform="matrix(0.8334424,-0.2790237,0.3106534,0.7485843,-61.882397,214.11016)" />
        <path
           style="fill:#fff8de;fill-opacity:1;stroke:none"
           d="m 316.53125,347.96875 c -30.27958,0.89706 -53.34654,29.12499 -50.375,43.3125 L 302.25,563.4375 c -0.66198,-15.07435 31.62246,-37.52114 75.25,-51.65625 23.08899,-7.48072 44.96548,-11.22775 61.6875,-11.21875 16.60188,0.009 28.0846,3.73831 30.625,11.125 l 0.0937,0.0937 -32.5312,-79.4687 c -8.36468,-6.8998 -57.30629,-8.78276 -78.09375,6.09375 0,0 3.39477,14.7891 5.46875,19.03125 8.00921,-3.25476 28.45204,-10.43847 41.75,-7.28125 4.10541,27.67329 -11.59596,52.44843 -45.78125,56.625 -34.51505,4.21688 -46.49514,-16.83852 -48.6875,-36.28125 -1.62071,-14.37311 4.40838,-43.41976 40.03125,-54.375 45.87941,-14.10946 74.94958,-7.74348 79.15625,1.15625 l -24.375,-59.5625 -0.0937,0 c -13.53649,-25.39309 -19.89743,12.68575 -70.59375,-6.40625 -6.7392,-2.53795 -13.34056,-3.52993 -19.625,-3.34375 l -5e-5,0 z m 123.375,159.3125 c -16.59205,0.25205 -37.88426,4.01461 -60.3125,11.28125 -41.65696,13.49666 -73.05421,34.5106 -75.625,49.59375 -0.1485,0.96919 -0.11615,1.9369 -0.0937,2.90625 0.009,0.0762 9.1e-4,0.13658 0,0.1875 -3e-4,0.017 0.001,0.0482 0,0.0625 l 0.875,4.03125 c -0.67073,-15.27146 32.02604,-38.02554 76.2187,-52.34375 23.38807,-7.57762 45.56137,-11.35245 62.5,-11.34375 15.76586,0.008 26.97665,3.32796 30.4375,9.90625 l -1.75,-4.28125 c -0.0536,-0.007 -0.12234,-0.10083 -0.21875,-0.28125 -0.48781,-0.74373 -0.96936,-1.51831 -1.5625,-2.1875 -4.8459,-5.24252 -15.82871,-7.75365 -30.46875,-7.53125 l 0,0 z m 3.9375,11.15625 c -16.75649,0.30232 -38.19829,4.13085 -60.75,11.4375 -42.19655,13.67148 -73.98966,34.97148 -76.59375,50.25 -0.15048,0.98175 -0.11645,1.95558 -0.0937,2.9375 0.0117,0.10295 0.005,0.19195 0,0.25 l 0.375,1.8125 1.71875,8.3125 91.28125,-11.625 80.75,-44.09375 -3.28125,-8 -0.5,-1.25 c -0.007,-0.009 -0.0236,-0.021 -0.0312,-0.0312 -0.0319,-0.0431 -0.0543,-0.0824 -0.0937,-0.15625 -0.49413,-0.75336 -0.96167,-1.50964 -1.5625,-2.1875 -4.58143,-4.9564 -14.5665,-7.51844 -27.9375,-7.65625 -1.07446,-0.0111 -2.16415,-0.0201 -3.28125,0 l -1.5e-4,-5e-5 z"
           id="path14"
           sodipodi:nodetypes="cccssccccccssscccsccscssccssccccccscscccccccsscsc" />
        <path
           sodipodi:nodetypes="cccssccccccssscccsccscssccssccccccscscccccccsscsc"
           id="path986"
           d="m 316.53125,347.96875 c -30.27958,0.89706 -53.34654,29.12499 -50.375,43.3125 L 302.25,563.4375 c -0.66198,-15.07435 31.62246,-37.52114 75.25,-51.65625 23.08899,-7.48072 44.96548,-11.22775 61.6875,-11.21875 16.60188,0.009 28.0846,3.73831 30.625,11.125 l 0.0937,0.0937 -32.5312,-79.4687 c -8.36468,-6.8998 -57.30629,-8.78276 -78.09375,6.09375 0,0 3.39477,14.7891 5.46875,19.03125 8.00921,-3.25476 28.45204,-10.43847 41.75,-7.28125 4.10541,27.67329 -11.59596,52.44843 -45.78125,56.625 -34.51505,4.21688 -46.49514,-16.83852 -48.6875,-36.28125 -1.62071,-14.37311 4.40838,-43.41976 40.03125,-54.375 45.87941,-14.10946 74.94958,-7.74348 79.15625,1.15625 l -24.375,-59.5625 -0.0937,0 c -13.53649,-25.39309 -19.89743,12.68575 -70.59375,-6.40625 -6.7392,-2.53795 -13.34056,-3.52993 -19.625,-3.34375 l -5e-5,0 z m 123.375,159.3125 c -16.59205,0.25205 -37.88426,4.01461 -60.3125,11.28125 -41.65696,13.49666 -73.05421,34.5106 -75.625,49.59375 -0.1485,0.96919 -0.11615,1.9369 -0.0937,2.90625 0.009,0.0762 9.1e-4,0.13658 0,0.1875 -3e-4,0.017 0.001,0.0482 0,0.0625 l 0.875,4.03125 c -0.67073,-15.27146 32.02604,-38.02554 76.2187,-52.34375 23.38807,-7.57762 45.56137,-11.35245 62.5,-11.34375 15.76586,0.008 26.97665,3.32796 30.4375,9.90625 l -1.75,-4.28125 c -0.0536,-0.007 -0.12234,-0.10083 -0.21875,-0.28125 -0.48781,-0.74373 -0.96936,-1.51831 -1.5625,-2.1875 -4.8459,-5.24252 -15.82871,-7.75365 -30.46875,-7.53125 l 0,0 z m 3.9375,11.15625 c -16.75649,0.30232 -38.19829,4.13085 -60.75,11.4375 -42.19655,13.67148 -73.98966,34.97148 -76.59375,50.25 -0.15048,0.98175 -0.11645,1.95558 -0.0937,2.9375 0.0117,0.10295 0.005,0.19195 0,0.25 l 0.375,1.8125 1.71875,8.3125 91.28125,-11.625 80.75,-44.09375 -3.28125,-8 -0.5,-1.25 c -0.007,-0.009 -0.0236,-0.021 -0.0312,-0.0312 -0.0319,-0.0431 -0.0543,-0.0824 -0.0937,-0.15625 -0.49413,-0.75336 -0.96167,-1.50964 -1.5625,-2.1875 -4.58143,-4.9564 -14.5665,-7.51844 -27.9375,-7.65625 -1.07446,-0.0111 -2.16415,-0.0201 -3.28125,0 l -1.5e-4,-5e-5 z"
           style="fill:url(#linearGradient248);fill-opacity:1;stroke:none" />
        <path
           style="fill:url(#linearGradient250);fill-opacity:1;stroke:none"
           d="m 448.84375,526.53125 c -17.17226,-0.009 -39.6331,3.81786 -63.34375,11.5 -47.12901,15.26957 -81.4119,39.99376 -76.9375,55.40625 l 91.21875,-11.625 80.5,-43.96875 c -2.65599,-7.54027 -14.43955,-11.30377 -31.4375,-11.3125 z"
           id="path3215" />
        <path
           sodipodi:type="arc"
           style="fill:#faf1cf;fill-opacity:1;fill-rule:nonzero;stroke:none;stroke-width:5.19999981;marker:none;visibility:visible;display:inline;overflow:visible;enable-background:accumulate"
           id="path860"
           sodipodi:cx="329"
           sodipodi:cy="571.11218"
           sodipodi:rx="101"
           sodipodi:ry="35.75"
           d="m 430,571.11218 c 0,19.74418 -45.21924,35.75 -101,35.75 -55.78076,0 -101,-16.00582 -101,-35.75 0,-19.74418 45.21924,-35.75 101,-35.75 55.78076,0 101,16.00582 101,35.75 z"
           transform="matrix(0.8482378,-0.283977,0.3161681,0.7618733,-64.591475,225.01878)" />
        <path
           id="path855"
           d="m 448.84375,526.53125 c -17.17226,-0.009 -39.6331,3.81786 -63.34375,11.5 -47.12901,15.26957 -81.4119,39.99376 -76.9375,55.40625 l 91.21875,-11.625 80.5,-43.96875 c -2.65599,-7.54027 -14.43955,-11.30377 -31.4375,-11.3125 z"
           style="fill:url(#linearGradient252);fill-opacity:1;stroke:none" />
        <path
           style="fill:url(#radialGradient254);fill-opacity:1;fill-rule:nonzero;stroke:none;stroke-width:5.19999981;marker:none;visibility:visible;display:inline;overflow:visible;enable-background:accumulate"
           d="m 478.375,534.59375 c 0.84575,0.99384 1.49125,2.07183 1.90625,3.25 l -80.5,43.96875 -91,11.59375 c 0.12431,0.67963 0.32631,1.3243 0.59375,1.96875 6.24248,15.04256 49.6534,14.40295 96.96875,-1.4375 47.31535,-15.84045 80.61748,-40.86369 74.375,-55.90625 -0.52201,-1.25789 -1.3213,-2.39874 -2.34375,-3.4375 z"
           id="path901" />
        <path
           style="fill:url(#linearGradient256);fill-opacity:1;stroke:none"
           d="m 316.53125,347.96875 c -2.3594,0.0699 -4.67459,0.30529 -6.9375,0.6875 l 21.28125,78.3125 c 2.96368,-2.36111 6.35831,-4.53459 10.21875,-6.46875 l -22.75,-72.53125 c -0.60512,-0.004 -1.213,-0.0178 -1.8125,0 z"
           id="path1072" />
        <path
           style="fill:url(#linearGradient258);fill-opacity:1;stroke:none"
           d="m 367.8125,505.53125 c -2.27372,0.50921 -4.62705,0.94863 -7.09375,1.25 -2.82991,0.34574 -5.49729,0.51047 -8.03125,0.53125 l 3.375,12.4375 c 4.61571,-1.95345 9.4368,-3.82264 14.4375,-5.59375 l -2.6875,-8.625 0,0 z"
           id="path1064" />
        <path
           id="path1060"
           style="fill:url(#linearGradient260);fill-opacity:1;stroke:none"
           d="m 443.84375,518.4375 c -2.00537,0.0362 -4.0853,0.11289 -6.21875,0.25 l 2.6875,8.40625 c 4.04601,-0.20783 7.72673,-0.22894 11.03125,-0.0625 l -3,-8.5625 c -0.40605,-0.009 -0.80619,-0.027 -1.21875,-0.0312 -1.07446,-0.0111 -2.16415,-0.0201 -3.28125,0 l 0,-5e-5 z m -3.9375,-11.15625 c -1.88631,0.0287 -3.84118,0.0994 -5.84375,0.21875 l 1.4375,4.4375 c 2.75848,-0.16853 5.43164,-0.28255 7.96875,-0.28125 0.83705,4.2e-4 1.65786,0.0122 2.46875,0.0312 l -1.53125,-4.375 c -1.46225,-0.0375 -2.95317,-0.0548 -4.5,-0.0312 z m -31.375,-80.15625 23.40625,73.6875 c 2.50624,-0.14311 4.93144,-0.25125 7.25,-0.25 0.96351,5.2e-4 1.91547,0.006 2.84375,0.0312 l -25.75,-73.21875 c -2.47552,-0.16321 -5.07403,-0.23313 -7.75,-0.25 l 0,5e-5 z M 389.25,350.5625 c -1.37923,0.56064 -2.86146,1.19087 -4.46875,1.84375 l 17.625,55.46875 c 2.52857,0.0437 4.93403,0.15751 7.15625,0.375 L 389.25,350.5625 z" />
        <path
           style="fill:url(#linearGradient262);fill-opacity:1;stroke:none"
           d="m 372.625,520.9375 c -5.08746,1.79977 -9.99511,3.66938 -14.6875,5.65625 l 1.21875,4.53125 c 4.75126,-2.01381 9.72048,-3.92764 14.875,-5.75 l -1.40625,-4.4375 z"
           id="path1058" />
        <path
           style="fill:url(#linearGradient264);fill-opacity:1;stroke:none"
           d="m 376.1875,532.21875 c -5.24836,1.85344 -10.29136,3.82484 -15.125,5.875 l 2.28125,8.4375 c 4.74078,-2.01834 9.84257,-4.02935 15.4375,-6.0625 l -2.59375,-8.25 z"
           id="path1056" />
        <path
           id="path1040"
           style="opacity:0.42978725;fill:url(#linearGradient266);fill-opacity:1;stroke:none"
           d="m 343.8125,546.25 c -11.79007,6.23453 -21.37521,12.83686 -27.90625,19.1875 l 2.34375,9.1875 c 5.55622,-5.86944 14.29004,-12.72204 27.9375,-19.96875 l -2.375,-8.40625 z m -3.25,-11.40625 c -11.67898,6.19442 -21.15505,12.76476 -27.5625,19.0625 l 1.125,4.53125 c 6.4654,-6.32259 15.99362,-12.88126 27.71875,-19.09375 l -1.28125,-4.5 z M 289.78125,356.1875 C 279.9003,362.21396 272.40053,370.67457 268.625,378.5 L 311.25,547 c 6.33947,-6.2696 15.76144,-12.79554 27.375,-18.96875 L 331.40625,502.625 c -12.60808,-6.75034 -17.97982,-19.75203 -19.375,-32.125 -0.678,-6.01278 -0.0123,-14.59384 3.59375,-23.34375 L 289.78125,356.1875 z" />
        <path
           style="font-size:medium;font-style:normal;font-variant:normal;font-weight:normal;font-stretch:normal;text-indent:0;text-align:start;text-decoration:none;line-height:normal;letter-spacing:normal;word-spacing:normal;text-transform:none;direction:ltr;block-progression:tb;writing-mode:lr-tb;text-anchor:start;fill:url(#linearGradient268);fill-opacity:1;stroke:none;stroke-width:3;marker:none;visibility:visible;display:inline;overflow:visible;enable-background:accumulate;font-family:Bitstream Vera Sans;-inkscape-font-specification:Bitstream Vera Sans"
           d="m 437.375,432.3125 c -2.61923,-2.16054 -6.39058,-4.59979 -12.59375,-5.53125 -6.20317,-0.93146 -13.82009,-1.35971 -21.84375,-1.09375 -16.04732,0.53191 -33.66011,3.72008 -44.53125,11.5 l -0.8125,0.59375 0.21875,0.96875 c 0,0 0.85406,3.71545 1.96875,7.96875 1.11469,4.2533 2.42775,8.92613 3.625,11.375 l 0.625,1.25 1.28125,-0.53125 c 7.68759,-3.12406 27.24781,-9.72006 39.78125,-7.34375 1.68915,13.08101 -1.09554,25.35132 -8.3125,34.90625 -7.42113,9.82523 -19.48432,16.85791 -36.25,18.90625 -16.93847,2.06946 -28.00956,-2.00085 -35.25,-8.84375 -7.24044,-6.8429 -10.68115,-16.61478 -11.75,-26.09375 -0.77454,-6.86896 0.29121,-17.48074 5.875,-27.59375 5.58379,-10.11301 15.6156,-19.81238 33.09375,-25.1875 22.79404,-7.00993 41.36559,-8.92376 54.65625,-8 6.64533,0.46188 12.22941,0.64061 16.0625,2.1875 3.83309,1.54689 7.20405,3.84731 8,5.53125 -1.30738,-2.76593 -2.89057,-5.60364 -7.125,-7.3125 -4.23443,-1.70886 -9.83578,-2.8966 -16.71875,-3.375 -3.44149,-0.2392 -7.21292,-0.31734 -11.28125,-0.15625 -12.20498,0.48327 -27.15472,2.92536 -44.46875,8.25 -18.14472,5.58012 -28.91245,15.8826 -34.84375,26.625 -5.9313,10.7424 -7.09617,21.8396 -6.25,29.34375 1.12351,9.96376 4.76104,20.44624 12.6875,27.9375 7.92646,7.49126 20.11092,11.83492 37.6875,9.6875 17.41961,-2.12823 30.30047,-9.56895 38.25,-20.09375 7.94953,-10.5248 10.91547,-24.0745 8.8125,-38.25 l -0.125,-1 -1,-0.25 c -13.47683,-3.19969 -32.36374,3.33287 -41.15625,6.8125 -0.8777,-2.16983 -2.02903,-5.85759 -3,-9.5625 -0.95711,-3.65202 -1.50418,-6.05407 -1.6875,-6.84375 10.02527,-6.71737 26.73253,-9.89915 42.03125,-10.40625 7.85576,-0.26039 15.33694,0.16522 21.3125,1.0625 5.97556,0.89728 11.46814,1.27314 13.03125,2.5625 z"
           id="path1086"
           sodipodi:nodetypes="csscccsccccsssssssscsscssssssccccscssc" />
        <path
           sodipodi:nodetypes="csscccsccccsssssssscsscssssssccccscssc"
           id="path1100"
           d="m 437.375,432.3125 c -2.61923,-2.16054 -6.39058,-4.59979 -12.59375,-5.53125 -6.20317,-0.93146 -13.82009,-1.35971 -21.84375,-1.09375 -16.04732,0.53191 -33.66011,3.72008 -44.53125,11.5 l -0.8125,0.59375 0.21875,0.96875 c 0,0 0.85406,3.71545 1.96875,7.96875 1.11469,4.2533 2.42775,8.92613 3.625,11.375 l 0.625,1.25 1.28125,-0.53125 c 7.68759,-3.12406 27.24781,-9.72006 39.78125,-7.34375 1.68915,13.08101 -1.09554,25.35132 -8.3125,34.90625 -7.42113,9.82523 -19.48432,16.85791 -36.25,18.90625 -16.93847,2.06946 -28.00956,-2.00085 -35.25,-8.84375 -7.24044,-6.8429 -10.68115,-16.61478 -11.75,-26.09375 -0.77454,-6.86896 0.29121,-17.48074 5.875,-27.59375 5.58379,-10.11301 15.6156,-19.81238 33.09375,-25.1875 22.79404,-7.00993 41.36559,-8.92376 54.65625,-8 6.64533,0.46188 12.22941,0.64061 16.0625,2.1875 3.83309,1.54689 7.20405,3.84731 8,5.53125 -1.30738,-2.76593 -2.89057,-5.60364 -7.125,-7.3125 -4.23443,-1.70886 -9.83578,-2.8966 -16.71875,-3.375 -3.44149,-0.2392 -7.21292,-0.31734 -11.28125,-0.15625 -12.20498,0.48327 -27.15472,2.92536 -44.46875,8.25 -18.14472,5.58012 -28.91245,15.8826 -34.84375,26.625 -5.9313,10.7424 -7.09617,21.8396 -6.25,29.34375 1.12351,9.96376 4.76104,20.44624 12.6875,27.9375 7.92646,7.49126 20.11092,11.83492 37.6875,9.6875 17.41961,-2.12823 30.30047,-9.56895 38.25,-20.09375 7.94953,-10.5248 10.91547,-24.0745 8.8125,-38.25 l -0.125,-1 -1,-0.25 c -13.47683,-3.19969 -32.36374,3.33287 -41.15625,6.8125 -0.8777,-2.16983 -2.02903,-5.85759 -3,-9.5625 -0.95711,-3.65202 -1.50418,-6.05407 -1.6875,-6.84375 10.02527,-6.71737 26.73253,-9.89915 42.03125,-10.40625 7.85576,-0.26039 15.33694,0.16522 21.3125,1.0625 5.97556,0.89728 11.46814,1.27314 13.03125,2.5625 z"
           style="font-size:medium;font-style:normal;font-variant:normal;font-weight:normal;font-stretch:normal;text-indent:0;text-align:start;text-decoration:none;line-height:normal;letter-spacing:normal;word-spacing:normal;text-transform:none;direction:ltr;block-progression:tb;writing-mode:lr-tb;text-anchor:start;fill:url(#linearGradient270);fill-opacity:1;stroke:none;stroke-width:3;marker:none;visibility:visible;display:inline;overflow:visible;enable-background:accumulate;font-family:Bitstream Vera Sans;-inkscape-font-specification:Bitstream Vera Sans" />
        <path
           style="fill:url(#linearGradient272);fill-opacity:1;fill-rule:nonzero;stroke:none;stroke-width:5;marker:none;visibility:visible;display:inline;overflow:visible;enable-background:accumulate"
           d="m 381.0625,539.53125 c -21.3082,7.29667 -39.69993,16.46673 -52.6875,25.6875 l 0,0.71875 70.28125,16.03125 1,-0.125 -18.59375,-42.3125 z"
           id="path3231" />
        <path
           style="font-size:medium;font-style:normal;font-variant:normal;font-weight:normal;font-stretch:normal;text-indent:0;text-align:start;text-decoration:none;line-height:normal;letter-spacing:normal;word-spacing:normal;text-transform:none;direction:ltr;block-progression:tb;writing-mode:lr-tb;text-anchor:start;fill:url(#radialGradient274);fill-opacity:1;stroke:none;stroke-width:3;marker:none;visibility:visible;display:inline;overflow:visible;enable-background:accumulate;font-family:Bitstream Vera Sans;-inkscape-font-specification:Bitstream Vera Sans"
           d="m 448.84375,525.03125 c -17.39577,-0.009 -39.97656,3.83977 -63.8125,11.5625 -23.68888,7.67508 -44.13697,17.72957 -58.21875,27.875 -7.04089,5.07272 -12.49971,10.15961 -15.96875,15.09375 -3.46904,4.93414 -5.01027,9.83248 -3.71875,14.28125 l 0.34375,1.25 1.28125,-0.15625 91.21875,-11.625 0.28125,-0.0625 0.25,-0.125 80.5,-43.96875 1.125,-0.59375 -0.4375,-1.21875 c -1.53296,-4.35202 -5.60325,-7.4366 -11.25,-9.40625 -5.64675,-1.96965 -12.98425,-2.90183 -21.59375,-2.90625 z m 0,3 c 8.38845,0.004 15.43524,0.95065 20.59375,2.75 4.52424,1.57811 7.42411,3.77568 8.84375,6.4375 l -78.9375,43.125 -89.5,11.40625 c -0.39218,-3.00526 0.6561,-6.51266 3.4375,-10.46875 3.17336,-4.51359 8.41959,-9.43141 15.28125,-14.375 13.72332,-9.88718 33.96612,-19.84301 57.40625,-27.4375 23.58536,-7.64155 45.92625,-11.44621 62.875,-11.4375 z"
           id="path1118" />
        <path
           id="path3221"
           d="m 478.375,534.59375 c 0.84575,0.99384 1.49125,2.07183 1.90625,3.25 l -80.5,43.96875 -91,11.59375 c 0.12431,0.67963 0.32631,1.3243 0.59375,1.96875 6.24248,15.04256 49.6534,14.40295 96.96875,-1.4375 47.31535,-15.84045 80.61748,-40.86369 74.375,-55.90625 -0.52201,-1.25789 -1.3213,-2.39874 -2.34375,-3.4375 z"
           style="fill:url(#radialGradient276);fill-opacity:1;fill-rule:nonzero;stroke:none;stroke-width:5.19999981;marker:none;visibility:visible;display:inline;overflow:visible;enable-background:accumulate" />
      </g>
    </g>
  </g>
</svg>
