<?xml version="1.0" encoding="UTF-8" standalone="no"?>
<!-- Created with Inkscape (http://www.inkscape.org/) -->
<svg
   xmlns:dc="http://purl.org/dc/elements/1.1/"
   xmlns:cc="http://creativecommons.org/ns#"
   xmlns:rdf="http://www.w3.org/1999/02/22-rdf-syntax-ns#"
   xmlns:svg="http://www.w3.org/2000/svg"
   xmlns="http://www.w3.org/2000/svg"
   xmlns:sodipodi="http://sodipodi.sourceforge.net/DTD/sodipodi-0.dtd"
   xmlns:inkscape="http://www.inkscape.org/namespaces/inkscape"
   width="48"
   height="48.035229"
   id="svg12385"
   sodipodi:version="0.32"
   inkscape:version="0.46"
   sodipodi:docname="tunnel.svg"
   inkscape:output_extension="org.inkscape.output.svg.inkscape"
   version="1.0">
  <defs
     id="defs12387">
    <inkscape:perspective
       sodipodi:type="inkscape:persp3d"
       inkscape:vp_x="0 : 526.18109 : 1"
       inkscape:vp_y="0 : 1000 : 0"
       inkscape:vp_z="744.09448 : 526.18109 : 1"
       inkscape:persp3d-origin="372.04724 : 350.78739 : 1"
       id="perspective12393" />
    <filter
       inkscape:collect="always"
       id="filter3250"
       x="-0.15107875"
       width="1.3021575"
       y="-0.24767795"
       height="1.4953558">
      <feGaussianBlur
         inkscape:collect="always"
         stdDeviation="4.0602414"
         id="feGaussianBlur3252" />
    </filter>
  </defs>
  <sodipodi:namedview
     id="base"
     pagecolor="#ffffff"
     bordercolor="#666666"
     borderopacity="1.0"
     gridtolerance="10000"
     guidetolerance="10"
     objecttolerance="10"
     inkscape:pageopacity="0.0"
     inkscape:pageshadow="2"
     inkscape:zoom="3.959798"
     inkscape:cx="48.06089"
     inkscape:cy="61.558443"
     inkscape:document-units="px"
     inkscape:current-layer="layer1"
     showgrid="false"
     inkscape:window-width="1280"
     inkscape:window-height="938"
     inkscape:window-x="0"
     inkscape:window-y="63" />
  <metadata
     id="metadata12390">
    <rdf:RDF>
      <cc:Work
         rdf:about="">
        <dc:format>image/svg+xml</dc:format>
        <dc:type
           rdf:resource="http://purl.org/dc/dcmitype/StillImage" />
        <dc:title>Other map symbols</dc:title>
        <dc:creator>
          <cc:Agent>
            <dc:title>Mohamed Ibrahim</dc:title>
          </cc:Agent>
        </dc:creator>
        <dc:rights>
          <cc:Agent>
            <dc:title>Public Domain</dc:title>
          </cc:Agent>
        </dc:rights>
        <dc:publisher>
          <cc:Agent>
            <dc:title>clker.com</dc:title>
          </cc:Agent>
        </dc:publisher>
        <dc:subject>
          <rdf:Bag>
            <rdf:li>other map symbols</rdf:li>
          </rdf:Bag>
        </dc:subject>
        <cc:license
           rdf:resource="http://creativecommons.org/licenses/publicdomain/" />
      </cc:Work>
      <cc:License
         rdf:about="http://creativecommons.org/licenses/publicdomain/">
        <cc:permits
           rdf:resource="http://creativecommons.org/ns#Reproduction" />
        <cc:permits
           rdf:resource="http://creativecommons.org/ns#Distribution" />
        <cc:permits
           rdf:resource="http://creativecommons.org/ns#DerivativeWorks" />
      </cc:License>
    </rdf:RDF>
  </metadata>
  <g
     inkscape:label="Layer 1"
     inkscape:groupmode="layer"
     id="layer1"
     transform="translate(-20.783013,-104.78954)">
    <g
       id="g3334"
       transform="matrix(0.3744647,0,0,0.3744647,13.000508,95.597288)"
       inkscape:export-filename="/home/fantom/devel/Projects/gsql-trunk/plugins/tunnel/tunnel.png"
       inkscape:export-xdpi="90"
       inkscape:export-ydpi="90">
      <path
         id="path4370"
         style="fill:#ffffff;fill-opacity:1;fill-rule:nonzero;stroke:none"
         d="M 36.248791,27.41508 C 29.254963,27.41508 23.556288,33.11375 23.556288,40.12053 L 23.556288,137.54196 C 23.556288,144.53579 29.254963,150.22151 36.248791,150.22151 L 133.65727,150.22151 C 140.66405,150.22151 146.37568,144.53579 146.37568,137.54196 L 146.37568,40.12053 C 146.37568,33.11375 140.66405,27.41508 133.65727,27.41508 L 36.248791,27.41508 z" />
      <path
         id="path4372"
         style="fill:#008080;fill-opacity:1;fill-rule:nonzero;stroke:none"
         d="M 133.65727,152.82477 C 142.11462,152.82477 148.96599,145.98636 148.96599,137.54196 L 148.96599,40.12053 C 148.96599,31.67613 142.11462,24.82477 133.65727,24.82477 L 36.248791,24.82477 C 27.804391,24.82477 20.965982,31.67613 20.965982,40.12053 L 20.965982,137.54196 C 20.965982,145.98636 27.804391,152.82477 36.248791,152.82477 L 133.65727,152.82477 z" />
      <path
         id="path4374"
         style="fill:#ffffff;fill-opacity:1;fill-rule:nonzero;stroke:none"
         d="M 71.438105,106.17335 L 71.438105,89.05142 C 71.438105,82.09645 77.072026,76.44958 84.052896,76.44958 C 91.007876,76.44958 96.654736,82.09645 96.654736,89.05142 L 96.654736,106.17335 L 71.438105,106.17335 z" />
      <path
         id="path4376"
         style="fill:#ffffff;fill-opacity:1;fill-rule:nonzero;stroke:none"
         d="M 84.972456,49.1866 C 103.28593,49.1866 118.12838,64.02906 118.12838,82.34253 L 118.12838,125.09554 L 127.57005,125.09554 L 127.54415,82.34253 C 127.54415,58.84845 108.46654,39.79674 84.972456,39.79674 C 61.465425,39.79674 42.400768,58.84845 42.400768,82.34253 L 42.374866,125.12144 L 51.803582,125.09554 L 51.803582,82.34253 C 51.803582,64.02906 66.658991,49.1866 84.972456,49.1866" />
      <path
         id="path4378"
         style="fill:#ffffff;fill-opacity:1;fill-rule:nonzero;stroke:none"
         d="M 86.617306,109.83863 L 81.475546,109.83863 L 80.840916,113.43916 L 87.264876,113.43916 L 86.617306,109.83863 z" />
      <path
         id="path4380"
         style="fill:#ffffff;fill-opacity:1;fill-rule:nonzero;stroke:none"
         d="M 88.210336,118.94356 L 79.934316,118.94356 L 78.975896,124.3314 L 89.116946,124.3314 L 88.210336,118.94356 z" />
      <path
         id="path4382"
         style="fill:#ffffff;fill-opacity:1;fill-rule:nonzero;stroke:none"
         d="M 90.360296,131.59721 L 77.732556,131.59721 L 76.515106,138.81121 L 91.616596,138.81121 L 90.360296,131.59721 z" />
      <path
         id="path3172"
         d="M 36.064263,24.558064 C 27.619863,24.558064 20.783013,31.394914 20.783013,39.839314 L 20.783013,63.901814 L 78.814263,63.901814 C 82.395383,63.901814 85.283023,61.014194 85.283013,57.433064 L 85.283013,24.558064 L 36.064263,24.558064 z"
         style="opacity:0.95169079;fill:#ececec;fill-opacity:1;fill-rule:nonzero;stroke:none" />
      <path
         id="path3165"
         d="M 36.066093,24.547714 C 27.621693,24.547714 20.784843,31.384564 20.784843,39.828964 L 20.784843,63.891464 L 78.816093,63.891464 C 82.397213,63.891464 85.284853,61.003844 85.284843,57.422714 L 85.284843,24.547714 L 36.066093,24.547714 z M 34.878593,35.641464 C 35.891923,35.641494 36.932573,35.703704 38.003593,35.860214 C 39.074583,36.008524 40.170923,36.242904 41.316093,36.547714 L 41.316093,40.453964 C 40.302733,40.000854 39.311243,39.653404 38.347343,39.422714 C 37.383423,39.192044 36.485393,39.078984 35.628593,39.078964 C 34.491673,39.078984 33.641083,39.234664 33.097343,39.547714 C 32.553603,39.860784 32.284833,40.357394 32.284843,41.016464 C 32.284853,41.510784 32.453593,41.892614 32.816093,42.172714 C 33.186813,42.444604 33.852173,42.662504 34.816093,42.860214 L 36.847343,43.297714 C 38.898733,43.709644 40.357283,44.332394 41.222343,45.172714 C 42.087383,46.013064 42.534823,47.186374 42.534843,48.735214 C 42.534823,50.770134 41.933393,52.300854 40.722343,53.297714 C 39.519493,54.286334 37.670883,54.766464 35.191093,54.766464 C 34.021223,54.766454 32.837943,54.676404 31.659843,54.453964 C 30.481743,54.231524 29.306703,53.890604 28.128593,53.453964 L 28.128593,49.422714 C 29.306713,50.048844 30.439113,50.538914 31.534843,50.860214 C 32.638803,51.173284 33.700753,51.328964 34.722343,51.328964 C 35.760373,51.328964 36.576603,51.143734 37.128593,50.797714 C 37.680563,50.451694 37.941083,49.971574 37.941093,49.328964 C 37.941083,48.752274 37.757553,48.298284 37.378593,47.985214 C 37.007843,47.672154 36.249023,47.388624 35.128593,47.141464 L 33.284843,46.735214 C 31.439423,46.339774 30.110393,45.725264 29.253593,44.860214 C 28.405023,43.995184 27.972343,42.826684 27.972343,41.360214 C 27.972353,39.523044 28.567243,38.098854 29.753593,37.110214 C 30.939923,36.121614 32.654183,35.641484 34.878593,35.641464 z M 51.972343,35.641464 C 52.985683,35.641494 54.026323,35.703704 55.097343,35.860214 C 56.168343,36.008524 57.264673,36.242904 58.409843,36.547714 L 58.409843,40.453964 C 57.396493,40.000854 56.404993,39.653404 55.441093,39.422714 C 54.477183,39.192044 53.579143,39.078984 52.722343,39.078964 C 51.585403,39.078984 50.734833,39.234664 50.191093,39.547714 C 49.647343,39.860784 49.378583,40.357394 49.378593,41.016464 C 49.378583,41.510784 49.578593,41.892614 49.941093,42.172714 C 50.311823,42.444604 50.977173,42.662504 51.941093,42.860214 L 53.972343,43.297714 C 56.023713,43.709644 57.482283,44.332394 58.347343,45.172714 C 59.212363,46.013064 59.628573,47.186374 59.628593,48.735214 C 59.628583,50.770134 59.027143,52.300854 57.816093,53.297714 C 56.613253,54.286334 54.764633,54.766464 52.284843,54.766464 C 51.114953,54.766454 49.962943,54.676404 48.784843,54.453964 C 47.606723,54.231524 46.400453,53.890604 45.222343,53.453964 L 45.222343,49.422714 C 46.400443,50.048844 47.564113,50.538914 48.659843,50.860214 C 49.763813,51.173284 50.825753,51.328964 51.847343,51.328964 C 52.885383,51.328964 53.670353,51.143734 54.222343,50.797714 C 54.774323,50.451694 55.034833,49.971574 55.034843,49.328964 C 55.034843,48.752274 54.851303,48.298284 54.472343,47.985214 C 54.101603,47.672154 53.374023,47.388624 52.253593,47.141464 L 50.409843,46.735214 C 48.564403,46.339774 47.204143,45.725264 46.347343,44.860214 C 45.498783,43.995184 45.066093,42.826684 45.066093,41.360214 C 45.066083,39.523044 45.660993,38.098854 46.847343,37.110214 C 48.033683,36.121614 49.747933,35.641484 51.972343,35.641464 z M 63.816093,35.953964 L 68.566093,35.953964 L 68.566093,42.985214 L 75.597343,42.985214 L 75.597343,35.953964 L 80.347343,35.953964 L 80.347343,54.422714 L 75.597343,54.422714 L 75.597343,46.610214 L 68.566093,46.610214 L 68.566093,54.422714 L 63.816093,54.422714 L 63.816093,35.953964 z"
         style="fill:#000000;fill-opacity:1;fill-rule:nonzero;stroke:none" />
    </g>
  </g>
</svg>
